Coordinates
version=1
nRows=17
nColumns=36
inDegrees=yes

Units are S.I. units (second, meters, Newtons, ...)
If the header above contains a line with 'inDegrees', this indicates whether rotational values are in degrees (yes) or radians (no).

endheader
time	pelvis_tilt	pelvis_list	pelvis_rotation	pelvis_tx	pelvis_ty	pelvis_tz	hip_flexion_r	hip_adduction_r	hip_rotation_r	knee_angle_r	knee_angle_r_beta	ankle_angle_r	subtalar_angle_r	mtp_angle_r	hip_flexion_l	hip_adduction_l	hip_rotation_l	knee_angle_l	knee_angle_l_beta	ankle_angle_l	subtalar_angle_l	mtp_angle_l	lumbar_extension	lumbar_bending	lumbar_rotation	arm_flex_r	arm_add_r	arm_rot_r	elbow_flex_r	pro_sup_r	arm_flex_l	arm_add_l	arm_rot_l	elbow_flex_l	pro_sup_l
      0.00000000	      0.12008190	     -0.16332567	     -0.62219350	     -1.07011209	      1.28131401	     -0.08614904	      2.32800123	      0.13800038	      4.51759658	      9.03284802	      0.15765294	      5.08122378	    -15.36374173	     -6.50658536	     -3.42956350	     -0.57055592	      4.49469811	      0.76478998	      0.01334810	      6.90960400	     -9.25818026	     -6.50658536	    -10.58153034	      1.63793583	     -0.24117864	      2.39930876	     -9.92746278	      6.59683544	     28.10955237	     74.99610122	      3.63494722	     -9.79269843	     12.37845824	     27.48004607	     67.90312026
      0.00416670	     -1.83048474	      0.09468119	     -1.57482841	     -1.06171709	      1.27660771	     -0.08119284	      4.26559853	     -0.01257734	      5.44264664	      9.55683501	      0.16679824	      8.32288806	    -11.58640009	     -6.62707937	     -1.63074601	     -0.32848194	      4.24534182	      0.76461763	      0.01334510	      6.61607994	     -8.98452251	     -6.62707937	     -7.17038673	      1.54717917	      0.31183840	      1.04521112	     -8.49950410	      0.10283993	     28.03162345	     76.56642646	      2.45114567	     -8.48857428	      5.24044334	     26.56842706	     69.05431862
      0.00833330	     -2.61188877	      0.62787084	     -2.38868863	     -1.06145393	      1.27476439	     -0.07961662	      4.80835477	     -0.62667016	      5.13535149	      9.19181668	      0.16042747	      9.40858023	    -10.17017296	     -7.06928870	     -0.99264497	      0.04393445	      3.02549816	      0.68395691	      0.01193730	      7.01277567	     -8.13227352	     -7.06928870	     -5.91422610	      0.62144160	      1.11444286	      0.28113140	     -8.04563734	     -0.58106814	     28.30081444	     72.25131451	      2.33638481	     -8.89785532	      5.30075730	     26.12697019	     67.49477739
      0.01250000	     -2.36947870	      0.87298993	     -2.93952695	     -1.06224483	      1.27262838	     -0.07868192	      4.62370423	     -0.89981907	      5.34934945	      9.16550986	      0.15996832	     10.03059696	     -9.74463848	     -7.35295070	     -1.50125509	      0.29856339	      2.50127062	      0.47930518	      0.00836545	      7.44997526	     -8.16943901	     -7.35295070	     -6.23486486	      0.10257346	      1.93003777	     -0.59636400	     -7.55917989	     -3.54064214	     29.65269232	     76.37468493	      2.37019070	     -9.41448003	      5.71927120	     26.42580624	     71.96573341
      0.01666670	     -2.29222667	      0.91799315	     -3.29804527	     -1.06270457	      1.27309490	     -0.07806063	      4.58255807	     -0.89791594	      5.50799808	      9.09931792	      0.15881306	     10.29473628	     -9.44983969	     -7.36913504	     -1.74220434	      0.36303268	      2.21175997	      0.39015258	      0.00680945	      7.86097662	     -8.10130935	     -7.36913504	     -6.37515446	     -0.07218537	      2.33798388	     -0.91134905	     -7.54644575	     -3.46374844	     30.29366477	     75.64564986	      2.23680989	     -9.56155815	      5.81462809	     26.98042969	     71.51670256
      0.02083330	     -2.11654552	      0.93985130	     -3.62813757	     -1.06328379	      1.27363610	     -0.07797450	      4.43299360	     -0.92730791	      5.56202230	      9.19100642	      0.16041332	     10.39755549	     -9.35415518	     -7.38932865	     -2.02249343	      0.44954069	      2.13757624	      0.35532222	      0.00620154	      8.11772363	     -8.14677626	     -7.38932865	     -6.55750839	     -0.13173076	      2.65877743	     -0.95390418	     -7.60351395	     -3.26445353	     30.88886371	     74.12969841	      2.34541446	     -9.57634008	      6.14062563	     27.11258354	     70.49954358
      0.02500000	     -2.04591935	      0.98007730	     -3.86438061	     -1.05694830	      1.27372417	     -0.07322628	      4.13152705	     -0.85691172	      5.66504158	      9.11948290	      0.15916500	     10.42395952	     -9.39699803	     -7.38986093	     -2.29130755	      0.44082544	      2.12911663	      0.33056142	      0.00576939	      8.23769657	     -8.22950667	     -7.38986093	     -6.30539462	     -0.28856352	      2.85268795	     -1.16194501	     -7.44969345	     -3.11493764	     30.89222281	     74.13723618	      2.19701627	     -9.62342880	      6.28089636	     26.99539729	     70.53160086
      0.02916670	     -1.88368640	      0.96399900	     -4.04861515	     -1.05743693	      1.27388302	     -0.07317414	      3.73920326	     -0.75894226	      5.87631563	      8.90028173	      0.15533922	     10.29481215	     -9.65526931	     -7.40250486	     -2.63753587	      0.36496812	      1.98119423	      0.31701652	      0.00553298	      8.39431618	     -8.37686781	     -7.40250486	     -6.32586903	     -0.38970522	      3.27423315	     -1.41039339	     -7.47169942	     -2.45495648	     31.11003306	     73.43275772	      2.50960863	     -9.68810276	      7.21118117	     26.57168754	     70.18812831
      0.03333330	     -1.76248821	      0.98644999	     -4.14712630	     -1.05781935	      1.27730071	     -0.07328340	      3.55813470	     -0.76263386	      5.81716493	      8.84940668	      0.15445128	     10.37279067	     -9.54180719	     -7.41587298	     -2.87652635	      0.33075102	      1.91703731	      0.30280965	      0.00528503	      8.30215720	     -8.41709497	     -7.41587298	     -6.34910557	     -0.48131356	      3.40597563	     -1.45528525	     -7.41921316	     -2.15514325	     31.21348384	     72.74692925	      2.57074422	     -9.76634959	      7.71165086	     26.54098662	     69.75846237
      0.03750000	     -1.75090588	      1.01670006	     -4.23779012	     -1.06511324	      1.27306008	     -0.07789006	      3.82160835	     -0.86158190	      5.75425200	      9.13018789	      0.15935184	     10.43601671	     -9.77211413	     -7.42526656	     -2.75762203	      0.35511311	      2.10292362	      0.29232357	      0.00510201	      8.15602193	     -8.96993191	     -7.42526656	     -6.64887432	     -0.44439926	      3.49805117	     -1.13613600	     -7.63534660	     -1.82291042	     31.46596260	     71.96630677	      2.90581793	     -9.73958710	      8.10781871	     26.73885798	     69.19339051
      0.04166670	     -1.95064277	      1.07635258	     -4.30381924	     -1.06550049	      1.27646966	     -0.07805608	      4.17665204	     -0.97809624	      5.97651780	      9.14398493	      0.15959264	     10.16307053	    -10.42364168	     -7.44391605	     -2.41367095	      0.39864219	      2.19853289	      0.28413785	      0.00495914	      7.80377608	     -9.34382587	     -7.44391605	     -6.35056316	     -0.42085873	      3.42022317	     -0.82625554	     -7.85498145	     -0.67956424	     31.07983369	     71.47543918	      3.22103431	     -9.83397378	      9.81523657	     26.11163505	     69.00628668
      0.04583330	     -1.84119298	      1.01092295	     -4.31961939	     -1.06486181	      1.27444113	     -0.07757618	      4.08921582	     -0.96487357	      5.86341060	      9.03172447	      0.15763333	     10.16414935	    -10.29535586	     -7.45308210	     -2.41712098	      0.36355715	      2.23899159	      0.27502977	      0.00480017	      7.75722206	     -9.31255515	     -7.45308210	     -6.63705489	     -0.28242736	      3.47676837	     -0.61390090	     -8.00955101	     -0.64418278	     31.29762691	     70.76997180	      3.26808381	     -9.83710655	      9.86241512	     26.62178021	     68.45267620
      0.05000000	     -2.01804502	      0.97296875	     -4.38338802	     -1.06495026	      1.27769112	     -0.07756951	      4.33608229	     -0.93504431	      6.09305370	      8.94062924	      0.15604342	      9.89294645	    -10.84923686	     -7.46430473	     -2.19003338	      0.33129184	      2.23440550	      0.27284477	      0.00476204	      7.53032742	     -9.55713341	     -7.46430473	     -6.47270363	     -0.15143508	      3.46721849	     -0.34616827	     -8.15539895	     -0.11230573	     31.09597976	     70.19127468	      3.41827262	     -9.79562891	     10.46737893	     26.28831566	     68.07003948
      0.05416670	     -1.90083756	      0.91404114	     -4.42393773	     -1.06509784	      1.27757811	     -0.07771161	      4.29925055	     -0.95415528	      5.85254582	      8.97634542	      0.15666678	      9.95240137	    -10.68977096	     -7.46732635	     -2.30309558	      0.27091461	      2.10674752	      0.27402280	      0.00478260	      7.44526879	     -9.78031029	     -7.46732635	     -6.80841821	     -0.01752766	      3.53603600	     -0.23313275	     -8.30060815	     -0.03720873	     31.30799450	     69.88839624	      3.40796239	     -9.81087538	     10.58041510	     26.48800462	     67.84875022
      0.05833330	     -1.99911018	      0.93845929	     -4.39802231	     -1.06470042	      1.27434219	     -0.07710947	      4.46950807	     -0.96811467	      5.76175662	      9.01938179	      0.15741791	      9.96051506	    -10.70628446	     -7.46747081	     -2.19277342	      0.25606370	      2.01506322	      0.28781187	      0.00502326	      7.48127591	     -9.81497850	     -7.46747081	     -6.85094251	      0.00031161	      3.55034540	     -0.23163275	     -8.33405005	     -0.03989988	     31.44724609	     69.84879319	      3.35813981	     -9.85000167	     10.57750196	     26.61946272	     67.81756448
      0.06250000	     -1.96932155	      0.92289330	     -4.52699147	     -1.06526612	      1.27361497	     -0.07770448	      4.59765720	     -0.95074440	      5.67396997	      9.15553378	      0.15979421	      9.93570237	    -10.90089681	     -7.47174452	     -2.25413299	      0.27299999	      1.90923618	      0.28363487	      0.00495036	      7.39043198	    -10.06964679	     -7.47174452	     -6.98099001	      0.10118285	      3.63328672	     -0.06609869	     -8.48590493	      0.03899363	     31.37536056	     69.54502641	      3.34151688	     -9.79987554	     10.55011812	     26.45782863	     67.60321177
      0.06666670	     -2.12140154	      0.87481020	     -4.52844710	     -1.06506689	      1.27384912	     -0.07745591	      4.76249047	     -0.87274721	      5.62960812	      9.08524866	      0.15856750	      9.72061117	    -11.28027690	     -7.48340612	     -2.09951101	      0.21671052	      1.98983961	      0.28797551	      0.00502612	      7.24086976	    -10.45350916	     -7.48340612	     -6.82314134	      0.22358177	      3.70689918	     -0.10183171	     -8.52396063	     -0.49330301	     31.28589696	     73.33167968	      3.34471218	     -9.72161602	     10.01140143	     26.12702809	     71.47057250
